<svg id="Layer_1" data-name="Layer 1" xmlns="http://www.w3.org/2000/svg" viewBox="0 0 530.99 343.57">
  <defs>
    <style>
      .cls-1 {
        fill: #df1f26;
      }

      .cls-2 {
        fill: #fff;
      }
    </style>
  </defs>
  <title>Artboard 1</title>
  <g>
    <path class="cls-1" d="M462.93,101.47c-30.49-46-86.88-78.49-147-78.48-59.23,0-115.56,31.54-147.06,78.48h42.05c28.7-29.75,65.89-45.92,105-46,38.46,0,76.27,16.21,105,46Z"/>
    <path class="cls-2" d="M151.45,257.4l-.8.8c-12.89,13.27-27.86,20.3-43.28,20.3-32.21,0-55.57-24.31-55.57-57.83s23.36-57.84,55.57-57.84c15.42,0,30.39,7,43.28,20.33l.8.83,20.77-25.22-.54-.65c-17.22-20.53-37.94-30.46-63.31-30.46s-48.79,8.58-65.64,24.14c-18.23,17-27.83,40.68-27.83,68.87s9.6,52,27.83,68.84c16.85,15.62,40.13,24.2,65.64,24.2s46.09-10,63.31-30.43l.54-.69Z"/>
    <polygon class="cls-2" points="193.12 310.27 229.71 310.27 229.71 291.6 229.71 130.72 193.12 130.72 193.12 310.27"/>
    <path class="cls-2" d="M373.08,271.19c-9.79,5.95-18.9,9-27.09,9-11.84,0-17.11-6.26-17.11-20.3V164.56h37.19V130.72H328.88V74.79L293,94.1v36.62H262v33.84H293V266c0,27.63,16.3,46.52,40.6,47,16.47.28,26.44-4.6,32.42-8.26l.38-.25,8.83-34.63Z"/>
    <polygon class="cls-2" points="403.33 310.27 439.92 310.27 439.92 280.17 439.92 130.72 403.33 130.72 403.33 310.27"/>
    <path class="cls-2" d="M498.51,88.34c0,1.81-1.25,2.6-2.92,2.6h-4.81v-5.2h4.81c1.67,0,2.92.88,2.92,2.6m3.14-.09c0-3.81-2.72-5.53-6-5.53h-8V101h3.09V94h3.52l3.56,7h3.65l-3.74-7.38a5.18,5.18,0,0,0,3.88-5.37M508,92.19a14,14,0,1,1-14-14,13.76,13.76,0,0,1,14,14m2.68,0A16.7,16.7,0,1,0,494,108.93a16.4,16.4,0,0,0,16.7-16.74"/>
  </g>
</svg>
